# xmcd
#
# Track frame offsets:
#	150
#	16610
#	40898
#	64844
#	84562
#	104301
#	129827
#	150198
#
# Disc length: 2190 seconds
#
# Revision: 0
# Processed by: cddbd v1.5.2PL0 Copyright (c) Steve Scherf et al.
# Submitted via: EasyCDDAExtractor 11.0.3.1
#
DISCID=4f088c08
DTITLE=Luke Wallin - Red Dog Minor
DYEAR=2004
DGENRE=Blues
TTITLE0=Red Dog Moon
TTITLE1=Einstein's Hair
TTITLE2=25 Years
TTITLE3=Ugly Mon Etuffe (a gator's tale)
TTITLE4=Jealousy
TTITLE5=Movin' Up North For The Winter
TTITLE6=Redneck Millionaire
TTITLE7=Inventin' Somebody Else
EXTD=
EXTT0=
EXTT1=
EXTT2=
EXTT3=
EXTT4=
EXTT5=
EXTT6=
EXTT7=
PLAYORDER=
